<svg width="36" height="38" viewBox="0 0 36 38" fill="none" xmlns="http://www.w3.org/2000/svg">
<path fill-rule="evenodd" clip-rule="evenodd" d="M29.5129 10.8708L17.6145 4.46183L5.71853 10.8685L17.617 17.2774L29.5129 10.8708ZM3.84667 13.8969V26.7102L15.7426 33.1169V20.3059L3.84667 13.8969ZM19.4913 33.1145L31.3822 26.7102V13.9016L19.4913 20.3059V33.1145ZM15.7401 1.43336C16.31 1.12643 16.9564 0.964844 17.6145 0.964844C18.2725 0.964844 18.9189 1.12643 19.4888 1.43336L33.2591 8.84716C33.8294 9.15427 34.3027 9.59609 34.6319 10.1282C34.961 10.6602 35.1339 11.2637 35.1334 11.878V26.7102C35.1334 27.3241 34.9602 27.9272 34.6311 28.4588C34.3022 28.9903 33.8289 29.4319 33.2591 29.7387L19.4888 37.1525C18.9189 37.4595 18.2725 37.6211 17.6145 37.6211C16.9564 37.6211 16.31 37.4595 15.7401 37.1525L1.96981 29.7387C1.39958 29.4316 0.92614 28.9898 0.597103 28.4576C0.26804 27.9256 0.0950374 27.3222 0.0954598 26.7079V11.8803C0.0950374 11.266 0.26804 10.6625 0.597103 10.1305C0.92614 9.59843 1.39958 9.15661 1.96981 8.84949L15.7426 1.43569L15.7401 1.43336Z" fill="#000"/>
</svg>
